<mxfile host="app.diagrams.net" modified="2021-12-22T07:04:19.009Z" agent="5.0 (Macintosh; Intel Mac OS X 10_15_7) AppleWebKit/537.36 (KHTML, like Gecko) Chrome/96.0.4664.110 Safari/537.36" etag="rRHvkQq4SiPvjgxS1vtx" version="15.7.3" type="github">
  <diagram id="C5RBs43oDa-KdzZeNtuy" name="Page-1">
    <mxGraphModel dx="908" dy="532" grid="1" gridSize="10" guides="1" tooltips="1" connect="1" arrows="1" fold="1" page="1" pageScale="1" pageWidth="827" pageHeight="1169" math="0" shadow="0">
      <root>
        <mxCell id="WIyWlLk6GJQsqaUBKTNV-0" />
        <mxCell id="WIyWlLk6GJQsqaUBKTNV-1" parent="WIyWlLk6GJQsqaUBKTNV-0" />
        <mxCell id="jUE7QCsp3ALjsDkaIkr1-5" value="" style="edgeStyle=orthogonalEdgeStyle;rounded=0;orthogonalLoop=1;jettySize=auto;html=1;" edge="1" parent="WIyWlLk6GJQsqaUBKTNV-1" source="jUE7QCsp3ALjsDkaIkr1-0" target="jUE7QCsp3ALjsDkaIkr1-4">
          <mxGeometry relative="1" as="geometry" />
        </mxCell>
        <mxCell id="jUE7QCsp3ALjsDkaIkr1-0" value="主机信息提取开始" style="rounded=1;whiteSpace=wrap;html=1;" vertex="1" parent="WIyWlLk6GJQsqaUBKTNV-1">
          <mxGeometry x="340" y="60" width="130" height="40" as="geometry" />
        </mxCell>
        <mxCell id="jUE7QCsp3ALjsDkaIkr1-7" style="edgeStyle=orthogonalEdgeStyle;rounded=0;orthogonalLoop=1;jettySize=auto;html=1;entryX=0.5;entryY=0;entryDx=0;entryDy=0;" edge="1" parent="WIyWlLk6GJQsqaUBKTNV-1" source="jUE7QCsp3ALjsDkaIkr1-4" target="jUE7QCsp3ALjsDkaIkr1-6">
          <mxGeometry relative="1" as="geometry" />
        </mxCell>
        <mxCell id="jUE7QCsp3ALjsDkaIkr1-21" style="edgeStyle=orthogonalEdgeStyle;rounded=0;orthogonalLoop=1;jettySize=auto;html=1;entryX=0.5;entryY=0;entryDx=0;entryDy=0;" edge="1" parent="WIyWlLk6GJQsqaUBKTNV-1" source="jUE7QCsp3ALjsDkaIkr1-4" target="jUE7QCsp3ALjsDkaIkr1-16">
          <mxGeometry relative="1" as="geometry" />
        </mxCell>
        <mxCell id="jUE7QCsp3ALjsDkaIkr1-4" value="域用户权限下&lt;br&gt;bypassUAC获取本机最高权限" style="rounded=1;whiteSpace=wrap;html=1;" vertex="1" parent="WIyWlLk6GJQsqaUBKTNV-1">
          <mxGeometry x="340" y="130" width="130" height="40" as="geometry" />
        </mxCell>
        <mxCell id="jUE7QCsp3ALjsDkaIkr1-6" value="凭据信息提取" style="swimlane;" vertex="1" parent="WIyWlLk6GJQsqaUBKTNV-1">
          <mxGeometry x="200" y="230" width="200" height="160" as="geometry" />
        </mxCell>
        <mxCell id="jUE7QCsp3ALjsDkaIkr1-8" value="rdp登录缓存" style="text;html=1;align=center;verticalAlign=middle;resizable=0;points=[];autosize=1;strokeColor=none;fillColor=none;" vertex="1" parent="jUE7QCsp3ALjsDkaIkr1-6">
          <mxGeometry x="60" y="40" width="80" height="20" as="geometry" />
        </mxCell>
        <mxCell id="jUE7QCsp3ALjsDkaIkr1-9" value="mimikatz读取本地hash" style="text;html=1;align=center;verticalAlign=middle;resizable=0;points=[];autosize=1;strokeColor=none;fillColor=none;" vertex="1" parent="jUE7QCsp3ALjsDkaIkr1-6">
          <mxGeometry x="30" y="60" width="140" height="20" as="geometry" />
        </mxCell>
        <mxCell id="jUE7QCsp3ALjsDkaIkr1-10" value="xshell，navicate等工具的密码提取" style="text;html=1;align=center;verticalAlign=middle;resizable=0;points=[];autosize=1;strokeColor=none;fillColor=none;" vertex="1" parent="jUE7QCsp3ALjsDkaIkr1-6">
          <mxGeometry y="80" width="200" height="20" as="geometry" />
        </mxCell>
        <mxCell id="jUE7QCsp3ALjsDkaIkr1-11" value="浏览器缓存的网站密码" style="text;html=1;align=center;verticalAlign=middle;resizable=0;points=[];autosize=1;strokeColor=none;fillColor=none;" vertex="1" parent="jUE7QCsp3ALjsDkaIkr1-6">
          <mxGeometry x="30" y="100" width="140" height="20" as="geometry" />
        </mxCell>
        <mxCell id="jUE7QCsp3ALjsDkaIkr1-12" value="笔记本的wifi密码" style="text;html=1;align=center;verticalAlign=middle;resizable=0;points=[];autosize=1;strokeColor=none;fillColor=none;" vertex="1" parent="jUE7QCsp3ALjsDkaIkr1-6">
          <mxGeometry x="50" y="120" width="100" height="20" as="geometry" />
        </mxCell>
        <mxCell id="jUE7QCsp3ALjsDkaIkr1-16" value="其他信息" style="swimlane;" vertex="1" parent="WIyWlLk6GJQsqaUBKTNV-1">
          <mxGeometry x="414" y="230" width="200" height="160" as="geometry" />
        </mxCell>
        <mxCell id="jUE7QCsp3ALjsDkaIkr1-22" value="hosts文件" style="text;html=1;align=center;verticalAlign=middle;resizable=0;points=[];autosize=1;strokeColor=none;fillColor=none;" vertex="1" parent="jUE7QCsp3ALjsDkaIkr1-16">
          <mxGeometry x="65" y="40" width="70" height="20" as="geometry" />
        </mxCell>
        <mxCell id="jUE7QCsp3ALjsDkaIkr1-24" value="ipconfig网段信息" style="text;html=1;align=center;verticalAlign=middle;resizable=0;points=[];autosize=1;strokeColor=none;fillColor=none;" vertex="1" parent="jUE7QCsp3ALjsDkaIkr1-16">
          <mxGeometry x="50" y="60" width="100" height="20" as="geometry" />
        </mxCell>
        <mxCell id="jUE7QCsp3ALjsDkaIkr1-26" value="主机其他敏感文件" style="text;html=1;align=center;verticalAlign=middle;resizable=0;points=[];autosize=1;strokeColor=none;fillColor=none;" vertex="1" parent="jUE7QCsp3ALjsDkaIkr1-16">
          <mxGeometry x="45" y="100" width="110" height="20" as="geometry" />
        </mxCell>
        <mxCell id="jUE7QCsp3ALjsDkaIkr1-25" value="net use共享信息" style="text;html=1;align=center;verticalAlign=middle;resizable=0;points=[];autosize=1;strokeColor=none;fillColor=none;" vertex="1" parent="WIyWlLk6GJQsqaUBKTNV-1">
          <mxGeometry x="460" y="310" width="100" height="20" as="geometry" />
        </mxCell>
      </root>
    </mxGraphModel>
  </diagram>
</mxfile>
